<svg width="24" height="24" viewBox="0 0 24 24" fill="none" xmlns="http://www.w3.org/2000/svg">
<g clip-path="url(#clip0_567_971)">
<path d="M12 24C18.6274 24 24 18.6274 24 12C24 5.37258 18.6274 0 12 0C5.37258 0 0 5.37258 0 12C0 18.6274 5.37258 24 12 24Z" fill="#03476E"/>
<path d="M7.19004 9.19004H9.26004V15.82H7.19004V9.19004ZM8.19004 5.90004C8.42822 5.89806 8.6616 5.96701 8.86046 6.0981C9.05933 6.22919 9.21468 6.4165 9.30674 6.63618C9.3988 6.85585 9.42341 7.09796 9.37743 7.33166C9.33144 7.56537 9.21695 7.7801 9.04853 7.94852C8.88011 8.11695 8.66537 8.23144 8.43167 8.27742C8.19796 8.3234 7.95586 8.2988 7.73618 8.20674C7.51651 8.11467 7.3292 7.95932 7.19811 7.76046C7.06701 7.56159 6.99806 7.32821 7.00004 7.09004C6.99999 6.93121 7.03174 6.77397 7.09341 6.62761C7.15508 6.48124 7.24542 6.3487 7.35912 6.23779C7.47282 6.12689 7.60757 6.03987 7.75543 5.98186C7.90329 5.92385 8.06126 5.89603 8.22004 5.90004" fill="white"/>
<path d="M10.5498 9.19007H12.5498V10.1001C12.7433 9.75606 13.0274 9.47164 13.3712 9.27771C13.7149 9.08378 14.1053 8.98776 14.4998 9.00008C16.5898 9.00008 16.9998 10.4001 16.9998 12.1801V15.8201H14.9098V12.6001C14.9098 11.8301 14.9098 10.8401 13.8398 10.8401C12.7698 10.8401 12.6098 11.6701 12.6098 12.5401V15.8201H10.5498V9.19007Z" fill="white"/>
</g>
<defs>
<clipPath id="clip0_567_971">
<rect width="24" height="24" fill="white"/>
</clipPath>
</defs>
</svg>
