<svg width="24" height="24" viewBox="0 0 24 24" fill="none" xmlns="http://www.w3.org/2000/svg">
<g clip-path="url(#clip0_567_953)">
<path d="M12 24C18.6274 24 24 18.6274 24 12C24 5.37258 18.6274 0 12 0C5.37258 0 0 5.37258 0 12C0 18.6274 5.37258 24 12 24Z" fill="#03476E"/>
<path d="M12.9999 11.16L16.9999 6.53003H16.0499L12.5999 10.53L9.8399 6.53003H6.6499L10.8299 12.61L6.6499 17.46H7.5999L11.2499 13.21L14.1599 17.46H17.3499L12.9999 11.16ZM11.7099 12.66L11.2799 12.05L7.9399 7.24003H9.3899L12.0999 11.13L12.5199 11.73L16.0499 16.78H14.6099L11.7299 12.66H11.7099Z" fill="white"/>
</g>
<defs>
<clipPath id="clip0_567_953">
<rect width="24" height="24" fill="white"/>
</clipPath>
</defs>
</svg>
