<svg width="24" height="24" viewBox="0 0 24 24" fill="none" xmlns="http://www.w3.org/2000/svg">
<g clip-path="url(#clip0_567_963)">
<path d="M12 24C18.6274 24 24 18.6274 24 12C24 5.37258 18.6274 0 12 0C5.37258 0 0 5.37258 0 12C0 18.6274 5.37258 24 12 24Z" fill="#03476E"/>
<path d="M15.3101 8C15.1657 8 15.0246 8.04281 14.9045 8.12303C14.7845 8.20324 14.6909 8.31725 14.6356 8.45064C14.5804 8.58403 14.5659 8.73081 14.5941 8.87242C14.6223 9.01402 14.6918 9.1441 14.7939 9.24619C14.896 9.34828 15.0261 9.41781 15.1677 9.44597C15.3093 9.47414 15.456 9.45968 15.5894 9.40443C15.7228 9.34918 15.8368 9.25561 15.9171 9.13557C15.9973 9.01552 16.0401 8.87438 16.0401 8.73C16.0401 8.53639 15.9632 8.35071 15.8263 8.21381C15.6894 8.07691 15.5037 8 15.3101 8Z" fill="white"/>
<path d="M12.0502 8.91992C11.4411 8.91992 10.8456 9.10056 10.3391 9.439C9.83256 9.77743 9.43778 10.2585 9.20467 10.8213C8.97155 11.3841 8.91056 12.0033 9.0294 12.6008C9.14824 13.1983 9.44158 13.7471 9.87233 14.1778C10.3031 14.6086 10.8519 14.9019 11.4493 15.0207C12.0468 15.1396 12.6661 15.0786 13.2289 14.8455C13.7917 14.6124 14.2727 14.2176 14.6111 13.7111C14.9496 13.2046 15.1302 12.6091 15.1302 11.9999C15.1302 11.5955 15.0505 11.1949 14.8958 10.8213C14.741 10.4476 14.5141 10.108 14.2281 9.82203C13.9421 9.53603 13.6026 9.30916 13.2289 9.15437C12.8552 8.99959 12.4547 8.91992 12.0502 8.91992ZM12.0502 13.9699C11.6547 13.9699 11.268 13.8526 10.9391 13.6329C10.6102 13.4131 10.3538 13.1007 10.2025 12.7353C10.0511 12.3698 10.0115 11.9677 10.0886 11.5797C10.1658 11.1918 10.3563 10.8354 10.636 10.5557C10.9157 10.276 11.2721 10.0855 11.66 10.0084C12.048 9.93118 12.4501 9.97079 12.8156 10.1222C13.181 10.2735 13.4934 10.5299 13.7132 10.8588C13.9329 11.1877 14.0502 11.5744 14.0502 11.9699C14.0542 12.2351 14.0054 12.4984 13.9067 12.7445C13.8079 12.9906 13.6613 13.2147 13.4751 13.4036C13.289 13.5925 13.0672 13.7425 12.8226 13.8449C12.5779 13.9472 12.3154 14 12.0502 13.9999V13.9699Z" fill="white"/>
<path d="M14.4902 18.2401H9.49023C8.49567 18.2401 7.54185 17.845 6.83858 17.1417C6.13532 16.4385 5.74023 15.4846 5.74023 14.4901V9.49006C5.74285 8.9976 5.84245 8.51048 6.03333 8.05651C6.2242 7.60255 6.50263 7.19062 6.85271 6.84425C7.20279 6.49789 7.61766 6.22387 8.07364 6.03785C8.52962 5.85182 9.01778 5.75743 9.51023 5.76006H14.5102C15.5048 5.76006 16.4586 6.15515 17.1619 6.85841C17.8651 7.56167 18.2602 8.5155 18.2602 9.51006V14.5101C18.2576 15.0025 18.158 15.4896 17.9671 15.9436C17.7763 16.3976 17.4978 16.8095 17.1478 17.1559C16.7977 17.5022 16.3828 17.7763 15.9268 17.9623C15.4708 18.1483 14.9827 18.2427 14.4902 18.2401ZM9.49023 6.93006C8.81026 6.93793 8.16067 7.21291 7.6817 7.69562C7.20273 8.17833 6.93281 8.83005 6.93023 9.51006V14.5101C6.93287 15.1935 7.20553 15.8482 7.68881 16.3315C8.17208 16.8148 8.82679 17.0874 9.51023 17.0901H14.5102C15.1937 17.0874 15.8484 16.8148 16.3317 16.3315C16.8149 15.8482 17.0876 15.1935 17.0902 14.5101V9.51006C17.0876 8.82662 16.8149 8.17191 16.3317 7.68864C15.8484 7.20536 15.1937 6.9327 14.5102 6.93006H9.49023Z" fill="white"/>
</g>
<defs>
<clipPath id="clip0_567_963">
<rect width="24" height="24" fill="white"/>
</clipPath>
</defs>
</svg>
