<svg width="24" height="24" viewBox="0 0 24 24" fill="none" xmlns="http://www.w3.org/2000/svg">
<g clip-path="url(#clip0_567_948)">
<path d="M12 24C18.6274 24 24 18.6274 24 12C24 5.37258 18.6274 0 12 0C5.37258 0 0 5.37258 0 12C0 18.6274 5.37258 24 12 24Z" fill="#03476E"/>
<path d="M13.3302 19.6401V13.0001H15.5602L16.0002 10.1901H13.3302V8.39009C13.3118 8.18367 13.3401 7.97576 13.413 7.78179C13.486 7.58782 13.6017 7.41277 13.7515 7.26963C13.9014 7.12649 14.0816 7.01895 14.2787 6.95497C14.4758 6.891 14.6848 6.87224 14.8902 6.90009H16.0902V4.54009C15.3985 4.4319 14.7001 4.37176 14.0002 4.36009C13.5068 4.32202 13.0112 4.39305 12.5484 4.56814C12.0856 4.74323 11.667 5.01808 11.3224 5.37317C10.9778 5.72826 10.7157 6.15487 10.5546 6.62271C10.3934 7.09054 10.3373 7.58812 10.3902 8.08009V10.1901H7.91016V13.0001H10.3402V19.6801L13.3302 19.6401Z" fill="white"/>
</g>
<defs>
<clipPath id="clip0_567_948">
<rect width="24" height="24" fill="white"/>
</clipPath>
</defs>
</svg>
