<svg width="24" height="24" viewBox="0 0 24 24" fill="none" xmlns="http://www.w3.org/2000/svg">
<path d="M12 24C18.6274 24 24 18.6274 24 12C24 5.37258 18.6274 0 12 0C5.37258 0 0 5.37258 0 12C0 18.6274 5.37258 24 12 24Z" fill="#03476E"/>
<path d="M17.8299 10.4799C17.8299 9.80097 17.5602 9.14982 17.0801 8.66973C16.6 8.18964 15.9489 7.91992 15.2699 7.91992H8.72992C8.05097 7.91992 7.39982 8.18964 6.91973 8.66973C6.43964 9.14982 6.16992 9.80097 6.16992 10.4799V13.4799C6.16992 14.1589 6.43964 14.81 6.91973 15.2901C7.39982 15.7702 8.05097 16.0399 8.72992 16.0399H15.2699C15.6061 16.0399 15.939 15.9737 16.2496 15.8451C16.5602 15.7164 16.8424 15.5278 17.0801 15.2901C17.3178 15.0524 17.5064 14.7702 17.6351 14.4596C17.7637 14.149 17.8299 13.8161 17.8299 13.4799V10.4799ZM13.9999 12.2299L11.0699 13.6799C10.9499 13.7399 10.5599 13.6799 10.5599 13.5299V10.5299C10.5599 10.3999 10.9599 10.3099 11.0699 10.3799L13.8799 11.9099C13.9999 11.9999 14.0999 12.1599 13.9999 12.2299Z" fill="white"/>
</svg>
